# xmcd
#
# Track frame offsets: 
#        150
#        15525
#        35566
#        47566
#        57832
#        71702
#        87997
#        100729
#        115643
#        123638
#        137130
#        152746
#        172100
#        183228
#        199037
#        212605
#
# Disc length: 2956 seconds
#
# Revision: 0
# Processed by: cddbd v1.5.2PL0 Copyright (c) Steve Scherf et al.
# Submitted via: ExactAudioCopyFreeDBPlugin 1.0
#
DISCID=dc0b8a10
DTITLE=The Howie Bros. - The Australian Collection 40 Australian Songs
DTITLE=[CD2)
DYEAR=2013
DGENRE=Country
TTITLE0=Waltzing Matilda
TTITLE1=My Heart Is Where The Roper Flows Tonight
TTITLE2=Where The Dog Sits On The Tuckerbox
TTITLE3=The Drover's Dream
TTITLE4=When The Jacaranda Blooms
TTITLE5=Overlander Trail [Medley]
TTITLE6=Days Of Old Khancoban
TTITLE7=Ballad Of The Loch Ard
TTITLE8=Click Go The Shears
TTITLE9=There's A Place Called Nar Nar Goon
TTITLE10=Suvla Bay [Medley]
TTITLE11=Mr Fleetwood-Smith
TTITLE12=The Old Bark Hut [Medley]
TTITLE13=Let My Heart Be Home With You At Christmastime
TTITLE14=Flash Jack From Gundagai
TTITLE15=Advance Australia Fair
EXTD=
EXTT0=
EXTT1=
EXTT2=
EXTT3=
EXTT4=
EXTT5=
EXTT6=
EXTT7=
EXTT8=
EXTT9=
EXTT10=
EXTT11=
EXTT12=
EXTT13=
EXTT14=
EXTT15=
PLAYORDER=
